<?xml version="1.0" encoding="UTF-8"?>
<svg width="19px" height="18px" viewBox="0 0 19 18" version="1.1" xmlns="http://www.w3.org/2000/svg" xmlns:xlink="http://www.w3.org/1999/xlink">
    <title>close</title>
    <g id="Page-1" stroke="none" stroke-width="1" fill="none" fill-rule="evenodd">
        <g id="close" transform="translate(1.000000, 1.000000)" fill="#0F1238" fill-rule="nonzero">
            <path d="M15.2821007,-0.696146957 C15.666572,-1.0926318 16.2996621,-1.10237065 16.696147,-0.717899306 C17.062133,-0.363002677 17.0985839,0.203734762 16.799629,0.600671221 L16.7178993,0.696146957 L8.96029931,8.69614696 C8.60528747,9.06225176 8.03832598,9.09859129 7.64139339,8.79937723 L7.54592357,8.71757967 L-0.696476432,0.717579668 C-1.09278474,0.332926356 -1.10223298,-0.300168125 -0.717579668,-0.696476432 C-0.362515072,-1.06229948 0.20423904,-1.09849029 0.601038223,-0.799353227 L0.696476432,-0.717579668 L8.22,6.585 L15.2821007,-0.696146957 Z" id="Path"></path>
            <path d="M7.53970069,7.30385304 C7.89471253,6.93774824 8.46167402,6.90140871 8.85860661,7.20062277 L8.95407643,7.28242033 L17.1964764,15.2824203 C17.5927847,15.6670736 17.602233,16.3001681 17.2175797,16.6964764 C16.8625151,17.0622995 16.295761,17.0984903 15.8989618,16.7993532 L15.8035236,16.7175797 L8.279,9.414 L1.21789931,16.696147 C0.863002677,17.062133 0.296265238,17.0985839 -0.100671221,16.799629 L-0.196146957,16.7178993 C-0.562132962,16.3630027 -0.598583931,15.7962652 -0.299629047,15.3993288 L-0.217899306,15.303853 L7.53970069,7.30385304 Z" id="Path"></path>
        </g>
    </g>
</svg>