<svg width="18" height="17" viewBox="0 0 18 17" fill="none" xmlns="http://www.w3.org/2000/svg">
<path d="M17.2344 10.5174V16.5449H13.7398V10.9214C13.7398 9.50939 13.2353 8.54512 11.97 8.54512C11.0045 8.54512 10.4308 9.1943 10.1775 9.8229C10.0855 10.0476 10.0618 10.3595 10.0618 10.6746V16.5446H6.567C6.567 16.5446 6.61391 7.02027 6.567 6.03438H10.0621V7.52378C10.055 7.5355 10.0451 7.54697 10.0389 7.55818H10.0621V7.52378C10.5265 6.80918 11.3547 5.78758 13.2116 5.78758C15.5107 5.78758 17.2344 7.28975 17.2344 10.5174ZM2.91112 0.968063C1.71569 0.968063 0.933594 1.75277 0.933594 2.78375C0.933594 3.79285 1.69302 4.60022 2.86526 4.60022H2.88793C4.10682 4.60022 4.86468 3.79285 4.86468 2.78375C4.84148 1.75277 4.10681 0.968063 2.91112 0.968063ZM1.1413 16.5449H4.63482V6.03438H1.1413V16.5449Z" fill="white"/>
</svg>
