<?xml version="1.0" encoding="UTF-8"?>
<svg width="20px" height="20px" viewBox="0 0 20 20" version="1.1" xmlns="http://www.w3.org/2000/svg" xmlns:xlink="http://www.w3.org/1999/xlink">
    <title>search</title>
    <g id="Page-1" stroke="none" stroke-width="1" fill="none" fill-rule="evenodd">
        <g id="search" transform="translate(1.000000, 1.000000)" fill="#FFFFFF" fill-rule="nonzero">
            <path d="M7.65002,-1 C2.87274645,-1 -1,2.87273633 -1,7.65 C-1,12.4272637 2.87274645,16.3 7.65002,16.3 C12.4272935,16.3 16.30004,12.4272637 16.30004,7.65 C16.30004,2.87273633 12.4272935,-1 7.65002,-1 Z M7.65002,1 C11.3227252,1 14.30004,3.977307 14.30004,7.65 C14.30004,11.322693 11.3227252,14.3 7.65002,14.3 C3.97731478,14.3 1,11.322693 1,7.65 C1,3.977307 3.97731478,1 7.65002,1 Z" id="Oval"></path>
            <path d="M12.7928932,12.7928932 C13.1533772,12.4324093 13.7206082,12.4046797 14.1128994,12.7097046 L14.2071068,12.7928932 L18.7071068,17.2928932 C19.0976311,17.6834175 19.0976311,18.3165825 18.7071068,18.7071068 C18.3466228,19.0675907 17.7793918,19.0953203 17.3871006,18.7902954 L17.2928932,18.7071068 L12.7928932,14.2071068 C12.4023689,13.8165825 12.4023689,13.1834175 12.7928932,12.7928932 Z" id="Path"></path>
        </g>
    </g>
</svg>