<svg width="19" height="15" viewBox="0 0 19 15" fill="none" xmlns="http://www.w3.org/2000/svg">
<path d="M18.2063 2.45307C17.5695 2.73577 16.8852 2.92616 16.1669 3.01198C16.9003 2.57279 17.4635 1.87687 17.7282 1.04753C17.0424 1.45426 16.2823 1.74994 15.4731 1.90932C14.8262 1.21917 13.9024 0.78791 12.8813 0.78791C10.5887 0.78791 8.90406 2.92688 9.42185 5.14734C6.47158 4.9995 3.8552 3.58602 2.1035 1.43768C1.1732 3.03361 1.62104 5.12137 3.20183 6.1786C2.62057 6.15985 2.07249 6.00047 1.59436 5.73436C1.55542 7.37933 2.73452 8.91829 4.44223 9.26085C3.94246 9.39642 3.3951 9.42816 2.83836 9.32142C3.28981 10.732 4.60088 11.7582 6.15571 11.7871C4.6629 12.9575 2.78211 13.4804 0.898438 13.2583C2.46985 14.2657 4.33694 14.8535 6.34177 14.8535C12.9346 14.8535 16.6594 9.28537 16.4344 4.29132C17.1282 3.79011 17.7304 3.16486 18.2063 2.45307Z" fill="white"/>
</svg>
