<svg width="20" height="14" viewBox="0 0 20 14" fill="none" xmlns="http://www.w3.org/2000/svg">
<path fill-rule="evenodd" clip-rule="evenodd" d="M18.6328 2.49301C19.0095 3.90809 19.0095 6.86065 19.0095 6.86065C19.0095 6.86065 19.0095 9.81311 18.6328 11.2284C18.4254 12.0091 17.8146 12.6239 17.0388 12.8327C15.6329 13.2118 9.995 13.2118 9.995 13.2118C9.995 13.2118 4.35713 13.2118 2.95117 12.8327C2.17551 12.6239 1.56457 12.0091 1.35724 11.2284C0.980469 9.81311 0.980469 6.86065 0.980469 6.86065C0.980469 6.86065 0.980469 3.90809 1.35724 2.49301C1.56457 1.71223 2.17551 1.0974 2.95117 0.888731C4.35713 0.509506 9.995 0.509506 9.995 0.509506C9.995 0.509506 15.6329 0.509506 17.0388 0.888731C17.8146 1.0974 18.4254 1.71223 18.6328 2.49301ZM8.15112 9.54135L12.8633 6.86075L8.15112 4.17996V9.54135Z" fill="white"/>
</svg>
