<svg xmlns="http://www.w3.org/2000/svg" width="290" height="58.16"><defs><clipPath id="a"><path data-name="Rectangle 134" fill="none" d="M0 0h290v58.16H0z"/></clipPath></defs><g data-name="Group 79"><path data-name="Path 1" d="M42.341 51.499V.933l-9.138 9.139v32.292z" fill="#e23626"/><path data-name="Path 2" d="M9.136 10.071v32.292l9.14 9.135V.933z" fill="#e23626"/><path data-name="Path 3" d="M33.203 42.363V10.071L24.063.932v50.566z" fill="#ffa600"/><path data-name="Path 4" d="M0 16.471v35.027l9.136-9.135V10.071L0 .933z" fill="#ffa600"/><path data-name="Path 5" d="M33.203 10.071L42.341.932H24.062z" fill="#ece9dc"/><path data-name="Path 6" d="M9.136.932H0l9.136 9.139L18.277.932z" fill="#ece9dc"/><path data-name="Path 7" d="M33.203 51.499h9.138l-9.138-9.135-9.14 9.135z" fill="#008cce"/><path data-name="Path 8" d="M0 51.498h18.276l-9.14-9.135z" fill="#008cce"/><path data-name="Path 9" d="M24.063 35.356h-5.786l-9.14-9.138h24.066z" fill="#008cce"/><path data-name="Path 10" d="M33.203 26.221H9.136l9.141-9.139h5.786z" fill="#ece9dc"/><g data-name="Group 78"><g data-name="Group 77" clip-path="url(#a)"><path data-name="Path 11" d="M55.904 23.579v-.618h2.394V1.552h-2.394V.938h8.895c7.018 0 11.255 4.561 11.255 11.191a11.033 11.033 0 01-11.255 11.45zm8.474-.614c5.24 0 8.054-4.69 8.054-10.641 0-5.79-3.105-10.771-8.086-10.771h-2.717v21.408z" fill="#161716"/><path data-name="Path 12" d="M91.578 21.252a2.519 2.519 0 01-2.588 2.652 2.594 2.594 0 01-2.717-2.328 5.541 5.541 0 01-4.4 2.328c-2.2 0-4.2-1.358-4.2-3.687 0-5.6 8.765-2.943 8.765-8.28 0-1.811-1.132-2.782-3.461-2.782-1.876 0-3.073.906-3.073 1.553 0 .1.065.194.226.194a1.7 1.7 0 011.779 1.714 1.767 1.767 0 01-1.876 1.714 1.806 1.806 0 01-1.779-1.908c0-1.811 1.876-3.978 5.208-3.978 3.526 0 5.531 1.941 5.531 5.369v7.469c0 .776.291 1.229.97 1.229a1.174 1.174 0 001.1-1.262zm-5.434-6.63c-1.908 1.844-5.531 2.006-5.531 5.369a2.42 2.42 0 002.62 2.523 2.7 2.7 0 002.911-2.588z" fill="#161716"/><path data-name="Path 13" d="M90.764 23.579v-.614h2.167V.614h-2.167V0h5.013v22.964h2.1v.614z" fill="#161716"/><path data-name="Path 14" d="M112.762 21.252a2.519 2.519 0 01-2.588 2.652 2.594 2.594 0 01-2.717-2.328 5.541 5.541 0 01-4.4 2.328c-2.2 0-4.2-1.358-4.2-3.687 0-5.6 8.765-2.943 8.765-8.28 0-1.811-1.132-2.782-3.461-2.782-1.876 0-3.073.906-3.073 1.553 0 .1.065.194.226.194a1.7 1.7 0 011.779 1.714 1.767 1.767 0 01-1.88 1.712 1.806 1.806 0 01-1.779-1.908c0-1.811 1.876-3.978 5.207-3.978 3.526 0 5.531 1.941 5.531 5.369v7.471c0 .776.291 1.229.97 1.229a1.174 1.174 0 001.1-1.262zm-5.434-6.63c-1.908 1.844-5.531 2.006-5.531 5.369a2.42 2.42 0 002.62 2.523 2.7 2.7 0 002.911-2.588z" fill="#161716"/><path data-name="Path 15" d="M112.761 23.579v-.618h2.167V9.38h-2.167v-.619h4.981v2.717c1.035-1.682 2.588-2.943 6.4-2.943v4.916h-.518c-.323-2.814-1.423-3.461-2.782-3.461-1.52 0-3.1 1.811-3.1 4.625v8.346h2.167v.614z" fill="#161716"/><path data-name="Path 16" d="M134.009 23.578v-.614h1.84v-10.84a2.4 2.4 0 00-2.587-2.652 3.518 3.518 0 00-3.364 3.623v9.869h1.811v.614h-6.76v-.614h2.135V9.347h-2.135v-.582h4.949v2.005a5.227 5.227 0 014.269-2.264c3.072 0 4.528 2.2 4.528 5.6v8.858h2.1v.614z" fill="#161716"/><path data-name="Path 17" d="M155.681 21.252a2.519 2.519 0 01-2.587 2.652 2.594 2.594 0 01-2.717-2.328 5.541 5.541 0 01-4.4 2.328c-2.2 0-4.2-1.358-4.2-3.687 0-5.6 8.765-2.943 8.765-8.28 0-1.811-1.132-2.782-3.461-2.782-1.876 0-3.072.906-3.072 1.553 0 .1.065.194.226.194a1.7 1.7 0 011.779 1.714 1.767 1.767 0 01-1.876 1.714 1.806 1.806 0 01-1.779-1.908c0-1.811 1.876-3.978 5.207-3.978 3.525 0 5.531 1.941 5.531 5.369v7.469c0 .776.291 1.229.97 1.229a1.174 1.174 0 001.1-1.262zm-5.434-6.63c-1.908 1.844-5.531 2.006-5.531 5.369a2.42 2.42 0 002.62 2.523 2.7 2.7 0 002.911-2.588z" fill="#161716"/><path data-name="Path 18" d="M166.934 13.451c-.42-2.62-1.811-4.3-4.528-4.3-2.038 0-3.137 1.164-3.137 2.555 0 4.14 8.636 2.62 8.636 7.7 0 2.587-2.426 4.5-5.434 4.5-2.749 0-3.4-1.2-4.593-1.2-.355 0-.614.323-.614.873h-.614v-5.207h.517c.517 3.073 2.555 4.851 5.3 4.851 2.005 0 3.105-1.2 3.105-2.781 0-4.011-8.636-2.685-8.636-7.633 0-2.62 2.1-4.366 5.434-4.366 2.167 0 3.04.873 3.978.873.291 0 .582-.226.582-.776h.518v4.911z" fill="#161716"/><path data-name="Path 19" d="M69.772 51.499v-.617h2.4v-10.3h-10.56v10.3h2.4v.617h-8.147v-.617h2.4V29.371h-2.4v-.617h8.156v.617h-2.4v10.463h10.56V29.371h-2.4v-.617h8.156v.617h-2.4v21.51h2.4v.617z" fill="#161615"/><path data-name="Path 20" d="M91.022 47.501c-.26 2.5-2.21 4.322-5.362 4.322-4.127 0-7.051-3.477-7.051-7.734s2.892-7.831 6.921-7.831c3.639 0 5.947 2.7 5.849 6.921h-9.68v1.04c0 3.249 1.4 6.531 4.907 6.531a3.541 3.541 0 003.7-3.249zm-2.859-4.939c.032-3.574-.715-5.621-2.632-5.621-2.144 0-3.412 2.47-3.8 5.621z" fill="#161615"/><path data-name="Path 21" d="M109.444 51.499v-.617h1.848V39.996c0-1.722-.78-2.664-2.275-2.664a3.182 3.182 0 00-3.087 3.411v10.138h1.82v.617h-6.531v-.617h1.852V39.996c0-1.722-.812-2.664-2.307-2.664a3.223 3.223 0 00-3.087 3.411v10.138h1.852v.617h-6.791v-.617h2.154v-13.68h-2.144v-.585h4.939v1.82a4.831 4.831 0 014.029-2.079 4.01 4.01 0 013.932 2.632 4.572 4.572 0 014.289-2.632c2.957 0 4.257 2.21 4.257 5.621v8.9h2.079v.617z" fill="#161615"/><path data-name="Path 22" d="M127.769 41.329c-.423-2.632-1.82-4.322-4.549-4.322-2.047 0-3.152 1.17-3.152 2.567 0 4.159 8.676 2.632 8.676 7.734 0 2.6-2.437 4.516-5.459 4.516-2.762 0-3.412-1.2-4.614-1.2-.357 0-.617.325-.617.877h-.617V46.27h.52c.52 3.087 2.567 4.874 5.329 4.874 2.015 0 3.119-1.2 3.119-2.794 0-4.029-8.676-2.7-8.676-7.668 0-2.632 2.112-4.387 5.459-4.387 2.177 0 3.054.877 4 .877.293 0 .585-.227.585-.78h.52v4.939z" fill="#161615"/><path data-name="Path 23" d="M129.913 51.499v-.618h2.177V28.428h-2.177v-.617h5.036v23.07h2.112v.617z" fill="#161615"/><path data-name="Path 24" d="M137.744 44.122a7.574 7.574 0 017.246-7.8c4.061 0 7.051 3.314 7.051 7.6 0 4.321-3.282 7.863-7.181 7.863-4.127 0-7.116-3.412-7.116-7.668m4.419-13a1.612 1.612 0 01-1.69-1.722 1.706 1.706 0 011.69-1.722 1.656 1.656 0 011.755 1.69 1.707 1.707 0 01-1.755 1.754m6.856 12.965c0-4-1.365-7.084-4.029-7.084-2.892 0-4.225 2.99-4.225 6.954s1.332 7.149 4.094 7.149c2.794 0 4.159-3.022 4.159-7.018m-1.3-12.965a1.612 1.612 0 01-1.69-1.722 1.706 1.706 0 011.69-1.722 1.655 1.655 0 011.754 1.69 1.707 1.707 0 01-1.754 1.754" fill="#161615"/><path data-name="Path 25" d="M154.964 37.236h-2.144v-.62h5V52.31c0 2.99-1.364 5.849-4.029 5.849-1.722 0-3.022-.975-3.022-2.632a1.943 1.943 0 011.852-2.047 1.6 1.6 0 011.755 1.69 1.682 1.682 0 01-1.755 1.658c-.162 0-.194.1-.194.162 0 .325.454.585 1.332.585a2.541 2.541 0 002.631-2.7c0-2.437-1.43-5.069-1.43-9.488zm-.357-7.831a1.74 1.74 0 011.754-1.722 1.639 1.639 0 011.69 1.69 1.693 1.693 0 01-1.69 1.755 1.646 1.646 0 01-1.754-1.722" fill="#161615"/><path data-name="Path 26" d="M176.081 49.159a2.654 2.654 0 01-5.264.487 4.841 4.841 0 01-4.127 2.177c-4.094 0-6.661-3.347-6.661-7.636 0-4.257 2.957-7.928 6.921-7.928a4.783 4.783 0 013.737 1.592v-9.423h-2.206v-.617h4.971v21.38c0 .78.293 1.235.975 1.235a1.179 1.179 0 001.1-1.267zm-5.39-8.838a3.019 3.019 0 00-3.249-3.184c-2.859 0-4.387 2.957-4.387 6.922s1.527 6.758 4.224 6.758a3.148 3.148 0 003.412-3.314z" fill="#161615"/><path data-name="Path 27" d="M187.424 41.329c-.423-2.632-1.82-4.322-4.549-4.322-2.047 0-3.152 1.17-3.152 2.567 0 4.159 8.676 2.632 8.676 7.734 0 2.6-2.437 4.516-5.459 4.516-2.762 0-3.412-1.2-4.614-1.2-.357 0-.617.325-.617.877h-.617V46.27h.52c.52 3.087 2.567 4.874 5.329 4.874 2.015 0 3.119-1.2 3.119-2.794 0-4.029-8.676-2.7-8.676-7.668 0-2.632 2.112-4.387 5.459-4.387 2.177 0 3.054.877 4 .877.292 0 .585-.227.585-.78h.52v4.939z" fill="#161615"/><path data-name="Path 28" d="M189.402 51.498v-.617h2.144V37.233h-2.144v-.617h2.144V33.01c0-3.575 1.625-5.752 4.192-5.752 2.242 0 3.379 1.333 3.379 3.152a1.866 1.866 0 01-1.853 2.047 1.607 1.607 0 01-1.754-1.625c0-1.072.78-1.69 1.982-1.69.163 0 .228-.1.228-.195 0-.357-.617-1.073-1.982-1.073-1.722 0-2.892 1.3-2.892 4.029a17.255 17.255 0 00.715 4.712h3.8v.65h-3.574a16.068 16.068 0 01.617 4.582v9.033h2.242v.617z" fill="#161615"/><path data-name="Path 29" d="M197.853 44.122a7.574 7.574 0 017.246-7.8c4.061 0 7.051 3.314 7.051 7.6 0 4.321-3.282 7.863-7.181 7.863-4.127 0-7.116-3.412-7.116-7.668m4.419-13a1.612 1.612 0 01-1.69-1.722 1.706 1.706 0 011.69-1.722 1.656 1.656 0 011.755 1.69 1.707 1.707 0 01-1.755 1.754m6.856 12.965c0-4-1.365-7.084-4.029-7.084-2.892 0-4.225 2.99-4.225 6.954s1.332 7.149 4.094 7.149c2.794 0 4.159-3.022 4.159-7.018m-1.3-12.965a1.612 1.612 0 01-1.685-1.715 1.706 1.706 0 011.69-1.722 1.655 1.655 0 011.754 1.69 1.707 1.707 0 01-1.754 1.754" fill="#161615"/><path data-name="Path 30" d="M213.644 51.498v-.617h2.177V37.233h-2.177v-.617h5v2.729c1.04-1.69 2.6-2.957 6.433-2.957v4.939h-.52c-.325-2.827-1.43-3.477-2.794-3.477-1.528 0-3.12 1.819-3.12 4.646v8.383h2.177v.617z" fill="#161615"/><path data-name="Path 31" d="M225.665 52.408l.423-1.267a9.622 9.622 0 00.553-3.086v-19.66h-2.177v-.584h4.939v10.27a4.92 4.92 0 013.964-1.819c4.094 0 6.661 3.281 6.661 7.571 0 4.321-3.119 7.928-7.051 7.928-2.957 0-3.932-1.885-5.134-1.885-.617 0-.91.585-1.495 2.535zm3.737-4.711a3.03 3.03 0 003.282 3.314c2.859 0 4.322-3.022 4.322-7.019 0-3.931-1.495-6.759-4.257-6.759a3.106 3.106 0 00-3.347 3.347z" fill="#161615"/><path data-name="Path 32" d="M256.988 49.158a2.539 2.539 0 01-2.632 2.665 2.632 2.632 0 01-2.7-2.275 5.287 5.287 0 01-4.387 2.275c-3.119 0-4.582-2.275-4.582-5.686v-8.9h-2.139v-.618h5.036v11.535a2.371 2.371 0 002.6 2.632 3.416 3.416 0 003.379-3.477V37.233h-2.145v-.614h4.939v12.575c0 .78.292 1.235.975 1.235a1.179 1.179 0 001.1-1.267z" fill="#161615"/><path data-name="Path 33" d="M266.443 51.499v-.617h1.852V39.996a2.41 2.41 0 00-2.6-2.664 3.534 3.534 0 00-3.379 3.639v9.91h1.82v.617h-6.791v-.617h2.144v-13.68h-2.144v-.585h4.972v2.013a5.253 5.253 0 014.289-2.274c3.087 0 4.549 2.21 4.549 5.621v8.9h2.112v.617z" fill="#161615"/><path data-name="Path 34" d="M290 49.159a2.654 2.654 0 01-5.264.487 4.842 4.842 0 01-4.127 2.177c-4.094 0-6.661-3.347-6.661-7.636 0-4.257 2.957-7.928 6.921-7.928a4.784 4.784 0 013.737 1.592v-9.423h-2.21v-.617h4.973v21.38c0 .78.292 1.235.975 1.235a1.179 1.179 0 001.1-1.267zm-5.394-8.838a3.019 3.019 0 00-3.249-3.184c-2.859 0-4.386 2.957-4.386 6.922s1.527 6.758 4.224 6.758a3.148 3.148 0 003.412-3.314z" fill="#161615"/></g></g></g></svg>